{
    "asset": {
        "generator": "FBX2glTF v0.9.7",
        "version": "2.0"
    },
    "scene": 0,
    "extensionsUsed": [
        "KHR_materials_unlit"
    ],
    "buffers": [
        {
            "byteLength": 1861812,
            "uri": "buffer.bin"
        }
    ],
    "bufferViews": [
        {
            "buffer": 0,
            "byteLength": 12384,
            "byteOffset": 0,
            "target": 34963
        },
        {
            "buffer": 0,
            "byteLength": 16200,
            "byteOffset": 12384,
            "target": 34962
        },
        {
            "buffer": 0,
            "byteLength": 16200,
            "byteOffset": 28584,
            "target": 34962
        },
        {
            "buffer": 0,
            "byteLength": 10800,
            "byteOffset": 44784,
            "target": 34962
        },
        {
            "buffer": 0,
            "byteLength": 10800,
            "byteOffset": 55584,
            "target": 34962
        },
        {
            "buffer": 0,
            "byteLength": 2400,
            "byteOffset": 66384,
            "target": 34963
        },
        {
            "buffer": 0,
            "byteLength": 3984,
            "byteOffset": 68784,
            "target": 34962
        },
        {
            "buffer": 0,
            "byteLength": 3984,
            "byteOffset": 72768,
            "target": 34962
        },
        {
            "buffer": 0,
            "byteLength": 2656,
            "byteOffset": 76752,
            "target": 34962
        },
        {
            "buffer": 0,
            "byteLength": 2656,
            "byteOffset": 79408,
            "target": 34962
        },
        {
            "buffer": 0,
            "byteLength": 389628,
            "byteOffset": 82064,
            "target": 34963
        },
        {
            "buffer": 0,
            "byteLength": 417036,
            "byteOffset": 471692,
            "target": 34962
        },
        {
            "buffer": 0,
            "byteLength": 417036,
            "byteOffset": 888728,
            "target": 34962
        },
        {
            "buffer": 0,
            "byteLength": 278024,
            "byteOffset": 1305764,
            "target": 34962
        },
        {
            "buffer": 0,
            "byteLength": 278024,
            "byteOffset": 1583788,
            "target": 34962
        }
    ],
    "scenes": [
        {
            "name": "Root Scene",
            "nodes": [
                0
            ]
        }
    ],
    "accessors": [
        {
            "componentType": 5123,
            "type": "SCALAR",
            "count": 6192,
            "bufferView": 0,
            "byteOffset": 0
        },
        {
            "componentType": 5126,
            "type": "VEC3",
            "count": 1350,
            "bufferView": 1,
            "byteOffset": 0,
            "min": [
                -0.448782861232758,
                -0.000603995285928249,
                -0.398093014955521
            ],
            "max": [
                0.448782712221146,
                0.237659946084023,
                0.399997025728226
            ]
        },
        {
            "componentType": 5126,
            "type": "VEC3",
            "count": 1350,
            "bufferView": 2,
            "byteOffset": 0
        },
        {
            "componentType": 5126,
            "type": "VEC2",
            "count": 1350,
            "bufferView": 3,
            "byteOffset": 0
        },
        {
            "componentType": 5126,
            "type": "VEC2",
            "count": 1350,
            "bufferView": 4,
            "byteOffset": 0
        },
        {
            "componentType": 5123,
            "type": "SCALAR",
            "count": 1200,
            "bufferView": 5,
            "byteOffset": 0
        },
        {
            "componentType": 5126,
            "type": "VEC3",
            "count": 332,
            "bufferView": 6,
            "byteOffset": 0,
            "min": [
                -0.349071681499481,
                -0.00272178160957992,
                -0.306857973337173
            ],
            "max": [
                0.348008781671524,
                0.00049096584552899,
                0.287166893482208
            ]
        },
        {
            "componentType": 5126,
            "type": "VEC3",
            "count": 332,
            "bufferView": 7,
            "byteOffset": 0
        },
        {
            "componentType": 5126,
            "type": "VEC2",
            "count": 332,
            "bufferView": 8,
            "byteOffset": 0
        },
        {
            "componentType": 5126,
            "type": "VEC2",
            "count": 332,
            "bufferView": 9,
            "byteOffset": 0
        },
        {
            "componentType": 5123,
            "type": "SCALAR",
            "count": 194814,
            "bufferView": 10,
            "byteOffset": 0
        },
        {
            "componentType": 5126,
            "type": "VEC3",
            "count": 34753,
            "bufferView": 11,
            "byteOffset": 0,
            "min": [
                -0.450437158346176,
                0.173913538455963,
                -0.400014489889145
            ],
            "max": [
                0.450437217950821,
                0.796509325504303,
                0.413359493017197
            ]
        },
        {
            "componentType": 5126,
            "type": "VEC3",
            "count": 34753,
            "bufferView": 12,
            "byteOffset": 0
        },
        {
            "componentType": 5126,
            "type": "VEC2",
            "count": 34753,
            "bufferView": 13,
            "byteOffset": 0
        },
        {
            "componentType": 5126,
            "type": "VEC2",
            "count": 34753,
            "bufferView": 14,
            "byteOffset": 0
        }
    ],
    "samplers": [
        {}
    ],
    "materials": [
        {
            "name": "Material #109",
            "alphaMode": "OPAQUE",
            "extras": {
                "fromFBX": {
                    "shadingModel": "Phong",
                    "isTruePBR": false
                }
            },
            "pbrMetallicRoughness": {
                "baseColorFactor": [
                    0.587999999523163,
                    0.587999999523163,
                    0.587999999523163,
                    1.0
                ],
                "metallicFactor": 0.0,
                "roughnessFactor": 1.0
            },
            "extensions": {
                "KHR_materials_unlit": {}
            }
        },
        {
            "name": "Material #108",
            "alphaMode": "OPAQUE",
            "extras": {
                "fromFBX": {
                    "shadingModel": "Phong",
                    "isTruePBR": false
                }
            },
            "pbrMetallicRoughness": {
                "baseColorFactor": [
                    0.587999999523163,
                    0.587999999523163,
                    0.587999999523163,
                    1.0
                ],
                "metallicFactor": 0.0,
                "roughnessFactor": 1.0
            },
            "extensions": {
                "KHR_materials_unlit": {}
            }
        }
    ],
    "meshes": [
        {
            "name": "Leg",
            "primitives": [
                {
                    "material": 0,
                    "mode": 4,
                    "attributes": {
                        "NORMAL": 2,
                        "POSITION": 1,
                        "TEXCOORD_0": 3,
                        "TEXCOORD_1": 4
                    },
                    "indices": 0
                }
            ]
        },
        {
            "name": "Bush",
            "primitives": [
                {
                    "material": 0,
                    "mode": 4,
                    "attributes": {
                        "NORMAL": 7,
                        "POSITION": 6,
                        "TEXCOORD_0": 8,
                        "TEXCOORD_1": 9
                    },
                    "indices": 5
                }
            ]
        },
        {
            "name": "Seat",
            "primitives": [
                {
                    "material": 1,
                    "mode": 4,
                    "attributes": {
                        "NORMAL": 12,
                        "POSITION": 11,
                        "TEXCOORD_0": 13,
                        "TEXCOORD_1": 14
                    },
                    "indices": 10
                }
            ]
        }
    ],
    "nodes": [
        {
            "name": "RootNode",
            "translation": [
                0.0,
                0.0,
                0.0
            ],
            "rotation": [
                0.0,
                0.0,
                0.0,
                1.0
            ],
            "scale": [
                1.0,
                1.0,
                1.0
            ],
            "children": [
                1,
                2,
                3
            ]
        },
        {
            "name": "Leg",
            "translation": [
                0.0,
                0.0,
                0.0
            ],
            "rotation": [
                0.0,
                0.0,
                0.0,
                1.0
            ],
            "scale": [
                1.0,
                1.0,
                1.0
            ],
            "mesh": 0
        },
        {
            "name": "Bush",
            "translation": [
                0.0,
                0.0,
                0.0
            ],
            "rotation": [
                0.0,
                0.0,
                0.0,
                1.0
            ],
            "scale": [
                1.0,
                1.0,
                1.0
            ],
            "mesh": 1
        },
        {
            "name": "Seat",
            "translation": [
                0.0,
                0.0,
                0.0
            ],
            "rotation": [
                0.0,
                0.0,
                0.0,
                1.0
            ],
            "scale": [
                1.0,
                1.0,
                1.0
            ],
            "mesh": 2
        }
    ]
}